<?xml version="1.0" encoding="utf-8"?>
<!-- Generator: Adobe Illustrator 16.0.0, SVG Export Plug-In . SVG Version: 6.00 Build 0)  -->
<!DOCTYPE svg PUBLIC "-//W3C//DTD SVG 1.1//EN" "http://www.w3.org/Graphics/SVG/1.1/DTD/svg11.dtd">
<svg version="1.1" id="Layer_1" xmlns="http://www.w3.org/2000/svg" xmlns:xlink="http://www.w3.org/1999/xlink" x="0px" y="0px"
	 width="218px" height="64px" viewBox="0 0 218 64" style="enable-background:new 0 0 218 64;" xml:space="preserve">
<style type="text/css">
<![CDATA[
	.st0{fill:#FFFFFF;}
	.st1{fill-rule:evenodd;clip-rule:evenodd;fill:#F5E7A1;}
]]>
</style>
<g>
	<path class="st0" d="M31,64h14.7V24.9H31V64z M32,25.9h12.7V63H32V25.9z"/>
	<path class="st0" d="M140.4,24.9h-18l-8.8,9.6l-8.8-9.6h-3.6H86.8h-3.6l-8.8,9.6l-8.8-9.6h-18l17.8,19.5L47.7,64h18l8.8-9.6
		l8.8,9.6h3.6h14.4h3.6l8.8-9.6l8.8,9.6h18l-17.8-19.5L140.4,24.9z M99,25.9L94,31.4l-4.9-5.4H99z M83.7,63l-9.2-10.1L65.3,63H49.9
		l16.9-18.5L49.9,25.9h15.3L74.5,36l9.2-10.1h4.1l5.6,6.2L82.1,44.5l11.2,12.4L87.7,63H83.7z M94,32.8l10.6,11.6L94,56.1L83.5,44.5
		L94,32.8z M89.1,63l4.9-5.4L99,63H89.1z M138.2,63h-15.3l-9.2-10.1L104.4,63h-4.1l-5.6-6.2L106,44.5L94.7,32.1l5.6-6.2h4.1
		l9.2,10.1l9.2-10.1h15.3l-16.9,18.5L138.2,63z"/>
	<path class="st0" d="M38.3,2.5c-4.7,0-8.4,3.8-8.4,8.4c0,4.7,3.8,8.4,8.4,8.4c4.7,0,8.4-3.8,8.4-8.4C46.7,6.3,43,2.5,38.3,2.5z
		 M38.3,18.4c-4.1,0-7.4-3.3-7.4-7.4c0-4.1,3.3-7.4,7.4-7.4c4.1,0,7.4,3.3,7.4,7.4C45.7,15,42.4,18.4,38.3,18.4z"/>
	<path class="st0" d="M24.3,13.1c1,0,1.9,0.2,2.8,0.7l0.7,0.4l0-12.5l-0.3-0.1c-2.2-1-4.6-1.6-7-1.6C11.3,0,3.8,7.5,3.8,16.7l0,0.3
		c0,0.2,0,0.4,0,0.5v7.4H0v12h3.8V64h14.7V36.9h9v-12h-9v-7.3C19.2,15,21.5,13.1,24.3,13.1z M26.6,25.9v10h-9V63H4.8V35.9H1v-10h3.8
		v-8.4c0-0.2,0-0.4,0-0.6l0-0.3C4.8,8,11.9,1,20.5,1c2.2,0,4.3,0.4,6.3,1.3l0,10.2c-0.8-0.3-1.7-0.5-2.5-0.5c-3.2,0-6,2.2-6.8,5.4
		l0,8.5H26.6z"/>
</g>
<g>
	<path class="st1" d="M79,43.4c-0.2-0.1-0.4-0.2-0.6-0.2c-0.3-0.1-0.5-0.2-0.7-0.3c-0.2-0.1-0.2-0.3-0.2-0.5c0-0.2,0.1-0.3,0.2-0.4
		c0.1-0.1,0.2-0.2,0.4-0.2c0.1,0,0.3,0,0.4,0.1c0.1,0.1,0.2,0.3,0.2,0.5h1c0-0.4-0.1-0.7-0.3-0.9c-0.2-0.2-0.4-0.4-0.6-0.5
		c-0.2-0.1-0.5-0.2-0.7-0.2c-0.3,0-0.6,0.1-0.8,0.2c-0.2,0.1-0.4,0.3-0.6,0.6c-0.1,0.2-0.2,0.5-0.2,0.8c0,0.4,0.1,0.7,0.2,0.9
		c0.2,0.2,0.3,0.4,0.5,0.5c0.2,0.1,0.4,0.2,0.5,0.2c0.2,0.1,0.4,0.2,0.6,0.2c0.2,0.1,0.3,0.2,0.4,0.3c0.1,0.1,0.1,0.3,0.1,0.4
		c0,0.2-0.1,0.4-0.2,0.5c-0.1,0.1-0.3,0.2-0.5,0.2c-0.2,0-0.3,0-0.5-0.2c-0.1-0.1-0.2-0.3-0.3-0.6h-1.1c0,0.4,0.1,0.7,0.3,1
		c0.2,0.2,0.4,0.4,0.7,0.5c0.3,0.1,0.5,0.2,0.8,0.2c0.3,0,0.6-0.1,0.8-0.2c0.3-0.1,0.5-0.3,0.7-0.6c0.2-0.3,0.3-0.6,0.3-1
		c0-0.4-0.1-0.7-0.3-0.9C79.5,43.7,79.3,43.5,79,43.4z"/>
	<polygon class="st1" points="88.5,43.5 87.3,41 86.1,41 88,44.5 88,46.5 89,46.5 89,44.5 90.8,41 89.7,41 	"/>
	<path class="st1" d="M99.6,43.4c-0.2-0.1-0.4-0.2-0.6-0.2c-0.3-0.1-0.5-0.2-0.7-0.3c-0.2-0.1-0.2-0.3-0.2-0.5
		c0-0.2,0.1-0.3,0.2-0.4c0.1-0.1,0.2-0.2,0.4-0.2c0.1,0,0.3,0,0.4,0.1c0.1,0.1,0.2,0.3,0.2,0.5h1c0-0.4-0.1-0.7-0.3-0.9
		c-0.2-0.2-0.4-0.4-0.6-0.5c-0.2-0.1-0.5-0.2-0.7-0.2c-0.3,0-0.6,0.1-0.8,0.2c-0.2,0.1-0.4,0.3-0.6,0.6c-0.1,0.2-0.2,0.5-0.2,0.8
		c0,0.4,0.1,0.7,0.2,0.9c0.2,0.2,0.3,0.4,0.5,0.5c0.2,0.1,0.4,0.2,0.5,0.2c0.2,0.1,0.4,0.2,0.6,0.2c0.2,0.1,0.3,0.2,0.4,0.3
		c0.1,0.1,0.1,0.3,0.1,0.4c0,0.2-0.1,0.4-0.2,0.5c-0.1,0.1-0.3,0.2-0.5,0.2c-0.2,0-0.3,0-0.5-0.2c-0.1-0.1-0.2-0.3-0.3-0.6h-1.1
		c0,0.4,0.1,0.7,0.3,1c0.2,0.2,0.4,0.4,0.7,0.5c0.3,0.1,0.5,0.2,0.8,0.2c0.3,0,0.6-0.1,0.9-0.2c0.3-0.1,0.5-0.3,0.7-0.6
		c0.2-0.3,0.3-0.6,0.3-1c0-0.4-0.1-0.7-0.3-0.9C100.1,43.7,99.9,43.5,99.6,43.4z"/>
	<polygon class="st1" points="106.8,42 107.8,42 107.8,46.5 108.8,46.5 108.8,42 109.9,42 109.9,41 106.8,41 	"/>
	<polygon class="st1" points="116.4,46.5 119.4,46.5 119.4,45.6 117.4,45.6 117.4,44.3 119.3,44.3 119.3,43.3 117.4,43.3 117.4,42 
		119.4,42 119.4,41 116.4,41 	"/>
	<polygon class="st1" points="129.2,45.2 129.2,45.2 127.8,41 126.3,41 126.3,46.5 127.4,46.5 127.4,42.4 127.4,42.4 128.8,46.5 
		129.7,46.5 131.1,42.4 131.1,42.4 131.1,42.4 131.1,46.5 132.1,46.5 132.1,41 130.7,41 	"/>
	<path class="st1" d="M141.5,43.4c-0.2-0.1-0.4-0.2-0.6-0.2c-0.3-0.1-0.5-0.2-0.7-0.3c-0.2-0.1-0.2-0.3-0.2-0.5
		c0-0.2,0.1-0.3,0.2-0.4c0.1-0.1,0.2-0.2,0.4-0.2c0.1,0,0.3,0,0.4,0.1c0.1,0.1,0.2,0.3,0.2,0.5h1c0-0.4-0.1-0.7-0.3-0.9
		c-0.2-0.2-0.4-0.4-0.6-0.5c-0.2-0.1-0.5-0.2-0.7-0.2c-0.3,0-0.6,0.1-0.8,0.2c-0.2,0.1-0.4,0.3-0.6,0.6c-0.1,0.2-0.2,0.5-0.2,0.8
		c0,0.4,0.1,0.7,0.2,0.9c0.2,0.2,0.3,0.4,0.5,0.5c0.2,0.1,0.4,0.2,0.5,0.2c0.2,0.1,0.4,0.2,0.6,0.2c0.2,0.1,0.3,0.2,0.4,0.3
		c0.1,0.1,0.1,0.3,0.1,0.4c0,0.2-0.1,0.4-0.2,0.5c-0.1,0.1-0.3,0.2-0.5,0.2c-0.2,0-0.3,0-0.5-0.2c-0.1-0.1-0.2-0.3-0.3-0.6h-1.1
		c0,0.4,0.1,0.7,0.3,1c0.2,0.2,0.4,0.4,0.7,0.5c0.3,0.1,0.5,0.2,0.8,0.2c0.3,0,0.6-0.1,0.9-0.2c0.3-0.1,0.5-0.3,0.7-0.6
		c0.2-0.3,0.3-0.6,0.3-1c0-0.4-0.1-0.7-0.3-0.9C141.9,43.7,141.7,43.5,141.5,43.4z"/>
	<path class="st1" d="M159.5,41c-0.3,0-0.5-0.1-0.8-0.1h-1.4v5.5h1v-2.1h0.4c0.3,0,0.6,0,0.8-0.1c0.3,0,0.5-0.2,0.8-0.4
		c0.4-0.3,0.5-0.8,0.5-1.3c0-0.5-0.2-0.9-0.5-1.3C160,41.2,159.7,41.1,159.5,41z M159.6,43.2c-0.1,0.1-0.3,0.2-0.5,0.2
		c-0.2,0-0.3,0-0.5,0h-0.3v-1.5h0.4c0.1,0,0.3,0,0.5,0c0.2,0,0.3,0.1,0.4,0.2c0.1,0.1,0.2,0.3,0.2,0.5
		C159.7,42.9,159.7,43.1,159.6,43.2z"/>
	<polygon class="st1" points="167,42 168,42 168,46.5 169,46.5 169,42 170.1,42 170.1,41 167,41 	"/>
	<polygon class="st1" points="176.6,46.5 179.5,46.5 179.5,45.6 177.6,45.6 177.6,44.3 179.5,44.3 179.5,43.3 177.6,43.3 177.6,42 
		179.5,42 179.5,41 176.6,41 	"/>
	<polygon class="st1" points="195.7,41 194.7,41 194.7,46.5 197.4,46.5 197.4,45.6 195.7,45.6 	"/>
	<polygon class="st1" points="203.2,42 204.2,42 204.2,46.5 205.3,46.5 205.3,42 206.3,42 206.3,41 203.2,41 	"/>
	<path class="st1" d="M217,42.6c-0.2-0.4-0.4-0.7-0.7-0.9c-0.1-0.1-0.2-0.2-0.4-0.3c-0.2-0.1-0.4-0.2-0.7-0.3
		c-0.3-0.1-0.7-0.1-1.1-0.1h-1.3v5.5h1.3c0.3,0,0.6,0,1-0.1c0.3-0.1,0.6-0.1,0.9-0.3c0.4-0.2,0.7-0.6,1-1c0.2-0.4,0.4-0.9,0.4-1.4
		C217.3,43.3,217.2,42.9,217,42.6z M216,44.7c-0.1,0.3-0.3,0.5-0.6,0.7c-0.2,0.1-0.4,0.2-0.6,0.2c-0.2,0-0.4,0.1-0.7,0h-0.2V42h0.2
		c0.3,0,0.6,0,0.9,0.1c0.3,0.1,0.5,0.2,0.7,0.4c0.2,0.2,0.3,0.4,0.4,0.6c0.1,0.2,0.2,0.5,0.2,0.8C216.2,44.1,216.2,44.4,216,44.7z"
		/>
</g>
</svg>
