<svg xmlns="http://www.w3.org/2000/svg" xmlns:xlink="http://www.w3.org/1999/xlink" version="1.1" id="Layer_1" x="0" y="0" width="214" height="64" viewBox="0 0 214 64" xml:space="preserve"><style type="text/css">
	.st0{fill:#FFFFFF;}
	.st1{fill-rule:evenodd;clip-rule:evenodd;fill:#F5E7A1;}
</style><path class="st0" d="M31 64h14.7V24.9H31V64zM32 25.9h12.7V63H32V25.9zM140.4 24.9h-18l-8.8 9.6 -8.8-9.6h-3.6H86.8h-3.6l-8.8 9.6 -8.8-9.6h-18l17.8 19.5L47.7 64h18l8.8-9.6 8.8 9.6h3.6 14.4 3.6l8.8-9.6 8.8 9.6h18l-17.8-19.5L140.4 24.9zM99 25.9L94 31.4l-4.9-5.4H99zM83.7 63l-9.2-10.1L65.3 63H49.9l16.9-18.5L49.9 25.9h15.3L74.5 36l9.2-10.1h4.1l5.6 6.2L82.1 44.5l11.2 12.4L87.7 63H83.7zM94 32.8l10.6 11.6L94 56.1 83.5 44.5 94 32.8zM89.1 63l4.9-5.4L99 63H89.1zM138.2 63h-15.3l-9.2-10.1L104.4 63h-4.1l-5.6-6.2L106 44.5 94.7 32.1l5.6-6.2h4.1l9.2 10.1 9.2-10.1h15.3l-16.9 18.5L138.2 63zM38.3 2.5c-4.7 0-8.4 3.8-8.4 8.4s3.8 8.4 8.4 8.4c4.7 0 8.4-3.8 8.4-8.4S43 2.5 38.3 2.5zM38.3 18.4c-4.1 0-7.4-3.3-7.4-7.4s3.3-7.4 7.4-7.4c4.1 0 7.4 3.3 7.4 7.4S42.4 18.4 38.3 18.4zM24.3 13.1c1 0 1.9 0.2 2.8 0.7l0.7 0.4 0-12.5 -0.3-0.1c-2.2-1-4.6-1.6-7-1.6C11.3 0 3.8 7.5 3.8 16.7l0 0.3c0 0.2 0 0.4 0 0.5v7.4H0v12h3.8V64h14.7V36.9h9v-12h-9v-7.3C19.2 15 21.5 13.1 24.3 13.1zM26.6 25.9v10h-9V63H4.8V35.9H1v-10h3.8v-8.4c0-0.2 0-0.4 0-0.6l0-0.3C4.8 8 11.9 1 20.5 1c2.2 0 4.3 0.4 6.3 1.3l0 10.2c-0.8-0.3-1.7-0.5-2.5-0.5 -3.3 0-6 2.2-6.8 5.4l0 8.5H26.6z"/><path class="st1" d="M79.1 42.5c-0.1 0-0.2-0.1-0.3-0.1C78.2 42.3 78 42 78 41.7c0-0.2 0.1-0.3 0.2-0.5 0.1-0.1 0.2-0.2 0.4-0.2 0.2 0 0.3 0.1 0.4 0.2 0.1 0.1 0.2 0.3 0.2 0.4v0h1c0-0.5-0.2-0.9-0.4-1.2 -0.3-0.3-0.6-0.4-1.1-0.4 -0.5 0-0.9 0.2-1.2 0.5 -0.3 0.3-0.4 0.7-0.4 1.2 0 0.3 0.1 0.7 0.3 0.9 0.2 0.3 0.5 0.4 0.8 0.6 0.1 0 0.2 0.1 0.3 0.1 0.5 0.1 0.8 0.4 0.8 0.8 0 0.2-0.1 0.4-0.2 0.5 -0.1 0.1-0.3 0.2-0.5 0.2 -0.2 0-0.4-0.1-0.5-0.2 -0.1-0.1-0.2-0.3-0.2-0.6v-0.1h-1c0 0.5 0.2 1 0.5 1.3 0.3 0.3 0.7 0.5 1.2 0.5 0.5 0 0.9-0.2 1.3-0.5 0.3-0.3 0.5-0.8 0.5-1.4 0-0.4-0.1-0.7-0.3-0.9C79.8 42.8 79.5 42.6 79.1 42.5z"/><polygon class="st1" points="86.9 42.6 86 40.2 84.8 40.2 86.4 43.8 86.4 45.8 87.4 45.8 87.4 43.8 89 40.2 87.9 40.2 "/><path class="st1" d="M95.8 42.5c-0.1 0-0.2-0.1-0.3-0.1 -0.5-0.2-0.8-0.4-0.8-0.7 0-0.2 0.1-0.3 0.2-0.5 0.1-0.1 0.2-0.2 0.4-0.2 0.2 0 0.3 0.1 0.4 0.2 0.1 0.1 0.2 0.3 0.2 0.4v0h1c0-0.5-0.2-0.9-0.4-1.2 -0.3-0.3-0.6-0.4-1.1-0.4 -0.5 0-0.9 0.2-1.2 0.5 -0.3 0.3-0.4 0.7-0.4 1.2 0 0.3 0.1 0.7 0.3 0.9 0.2 0.3 0.5 0.4 0.8 0.6 0.1 0 0.2 0.1 0.3 0.1 0.5 0.1 0.8 0.4 0.8 0.8 0 0.2-0.1 0.4-0.2 0.5 -0.1 0.1-0.3 0.2-0.5 0.2 -0.2 0-0.4-0.1-0.5-0.2 -0.1-0.1-0.2-0.3-0.2-0.6v-0.1h-1c0 0.5 0.2 1 0.5 1.3 0.3 0.3 0.7 0.5 1.2 0.5 0.5 0 0.9-0.2 1.3-0.5 0.3-0.3 0.5-0.8 0.5-1.4 0-0.4-0.1-0.7-0.3-0.9C96.4 42.8 96.2 42.6 95.8 42.5z"/><polygon class="st1" points="101.2 41.2 102.3 41.2 102.3 45.8 103.3 45.8 103.3 41.2 104.4 41.2 104.4 40.2 101.2 40.2 "/><polygon class="st1" points="108.9 45.8 111.9 45.8 111.9 44.8 109.9 44.8 109.9 43.4 111.9 43.4 111.9 42.5 109.9 42.5 109.9 41.2 111.9 41.2 111.9 40.2 108.9 40.2 "/><polygon class="st1" points="119.8 44.3 118.4 40.2 116.9 40.2 116.9 45.8 118 45.8 118 41.8 119.4 45.8 120.2 45.8 121.6 41.8 121.5 45.8 122.6 45.8 122.6 40.2 121.2 40.2 "/><path class="st1" d="M129.7 42.5c-0.1 0-0.2-0.1-0.3-0.1 -0.5-0.2-0.8-0.4-0.8-0.7 0-0.2 0.1-0.3 0.2-0.5 0.1-0.1 0.2-0.2 0.4-0.2 0.2 0 0.3 0.1 0.4 0.2 0.1 0.1 0.2 0.3 0.2 0.4v0h1c0-0.5-0.2-0.9-0.4-1.2 -0.3-0.3-0.6-0.4-1.1-0.4 -0.5 0-0.9 0.2-1.2 0.5 -0.3 0.3-0.4 0.7-0.4 1.2 0 0.3 0.1 0.7 0.3 0.9 0.2 0.3 0.5 0.4 0.8 0.6 0.1 0 0.2 0.1 0.3 0.1 0.5 0.1 0.8 0.4 0.8 0.8 0 0.2-0.1 0.4-0.2 0.5 -0.1 0.1-0.3 0.2-0.5 0.2 -0.2 0-0.4-0.1-0.5-0.2 -0.1-0.1-0.2-0.3-0.2-0.6v-0.1h-1c0 0.5 0.2 1 0.5 1.3 0.3 0.3 0.7 0.5 1.2 0.5 0.5 0 0.9-0.2 1.3-0.5 0.3-0.3 0.5-0.8 0.5-1.4 0-0.4-0.1-0.7-0.3-0.9C130.4 42.8 130.1 42.6 129.7 42.5z"/><polygon class="st1" points="143.9 43.9 142.7 40.2 141.5 40.2 143.5 45.8 144.3 45.8 146.3 40.2 145.1 40.2 "/><polygon class="st1" points="154.5 43.8 152.2 40.2 151.2 40.2 151.2 45.8 152.3 45.8 152.3 42.1 154.6 45.8 155.6 45.8 155.6 40.2 154.5 40.2 "/><path class="st1" d="M169.4 41.2c0.3 0 0.5 0.1 0.7 0.2s0.4 0.3 0.6 0.5h1.3c-0.3-0.6-0.6-1-1.1-1.3 -0.4-0.3-0.9-0.4-1.5-0.4 -0.4 0-0.7 0.1-1.1 0.2 -0.3 0.1-0.6 0.3-0.9 0.6 -0.3 0.3-0.5 0.6-0.6 0.9 -0.1 0.3-0.2 0.7-0.2 1.1 0 0.8 0.3 1.5 0.8 2.1 0.5 0.6 1.2 0.8 2 0.8 0.6 0 1.1-0.1 1.5-0.4 0.4-0.3 0.8-0.7 1-1.3h-1.3c-0.1 0.2-0.3 0.3-0.5 0.4 -0.2 0.1-0.5 0.2-0.7 0.2 -0.5 0-0.9-0.2-1.2-0.5 -0.3-0.3-0.5-0.8-0.5-1.3 0-0.5 0.2-0.9 0.5-1.2C168.5 41.4 168.9 41.2 169.4 41.2zM179.9 41c-0.3-0.3-0.6-0.5-0.9-0.6 -0.3-0.1-0.7-0.2-1.1-0.2 -0.8 0-1.5 0.3-2 0.8 -0.5 0.5-0.8 1.2-0.8 2 0 0.4 0.1 0.8 0.2 1.1 0.1 0.3 0.3 0.6 0.6 0.9 0.3 0.3 0.6 0.5 0.9 0.7 0.3 0.1 0.7 0.2 1.1 0.2 0.4 0 0.8-0.1 1.1-0.2 0.4-0.2 0.7-0.4 0.9-0.6 0.3-0.3 0.5-0.6 0.6-0.9 0.1-0.3 0.2-0.7 0.2-1.1 0-0.4-0.1-0.7-0.2-1.1C180.4 41.5 180.2 41.2 179.9 41zM179.2 44.3c-0.3 0.3-0.7 0.5-1.2 0.5 -0.5 0-0.9-0.2-1.2-0.5 -0.3-0.4-0.5-0.8-0.5-1.3 0-0.5 0.2-0.9 0.5-1.2 0.3-0.3 0.7-0.5 1.2-0.5 0.5 0 0.9 0.2 1.2 0.5 0.3 0.3 0.5 0.7 0.5 1.2C179.7 43.5 179.5 43.9 179.2 44.3z"/><rect x="184.1" y="44.7" class="st1" width="1" height="1"/><path class="st1" d="M188.7 45.8h0.3c0 0.2 0 0.3-0.1 0.3 0 0.1-0.1 0.1-0.3 0.1v0.6c0.3 0 0.6-0.1 0.7-0.3 0.2-0.2 0.2-0.4 0.2-0.8v-1h-1V45.8z"/><polygon class="st1" points="198.6 40.2 197.6 40.2 197.6 45.8 200.4 45.8 200.4 44.8 198.6 44.8 "/><polygon class="st1" points="202.5 41.2 203.6 41.2 203.6 45.8 204.6 45.8 204.6 41.2 205.7 41.2 205.7 40.2 202.5 40.2 "/><path class="st1" d="M213 41.7c-0.2-0.4-0.4-0.7-0.7-1 -0.2-0.2-0.5-0.3-0.7-0.4 -0.3-0.1-0.6-0.1-1.1-0.1h-1.8v5.5h1.9c0.4 0 0.8 0 1-0.1 0.2-0.1 0.5-0.2 0.7-0.3 0.4-0.3 0.6-0.6 0.8-1 0.2-0.4 0.3-0.8 0.3-1.3C213.3 42.5 213.2 42.1 213 41.7zM212 43.8c-0.1 0.2-0.2 0.4-0.3 0.6 -0.2 0.2-0.3 0.3-0.5 0.3 -0.2 0.1-0.5 0.1-0.8 0.1h-0.7v-3.6h0.7c0.6 0 1 0.2 1.3 0.5 0.3 0.3 0.5 0.8 0.5 1.4C212.2 43.3 212.1 43.6 212 43.8z"/></svg>